# xmcd
#
# Track frame offsets:
#	182
#	28697
#	51537
#	72052
#	98625
#	122312
#	145115
#	170077
#	193090
#	217705
#
# Disc length: 3255 seconds
#
# Revision: 1
# Processed by: cddbd v1.5.1PL0 Copyright (c) Steve Scherf et al.
# Submitted via: CDex 1.50Beta5
#
DISCID=880cb50a
DTITLE=エル・デバージ - ラブストーリーズ2
DYEAR=1993
DGENRE=
TTITLE0=エル・デバージ/君がいるだけで
TTITLE1=ジジ・ワース/You are my secret
TTITLE2=ケリー・ケージー/約束の橋
TTITLE3=ミリニ・カーン/世界中の誰よりきっと
TTITLE4=ジェイソン・シェフ/You’re the Only…
TTITLE5=イブズ/浅い眠り
TTITLE6=ダグラス・ゲッチェル/悲しみは雪のように
TTITLE7=イボンヌ・ウィリアムス/また逢える…
TTITLE8=ケニア/出逢いのとき
TTITLE9=Friends
EXTD=
EXTT0=
EXTT1=
EXTT2=
EXTT3=
EXTT4=
EXTT5=
EXTT6=
EXTT7=
EXTT8=
EXTT9=
PLAYORDER=
